/* XPM */
static char * collectible_xpm[] = {
"64 64 6 1",
" 	c None",
".	c #161C2E",
"+	c #F1E2B9",
"@	c #DB4C4C",
"#	c #BCADA7",
"$	c #7C4E5F",
"                                                                ",
"                                                                ",
"                                                                ",
"                                                                ",
"                                                                ",
"                                                                ",
"                                                                ",
"                                                                ",
"          ......            ......             ......           ",
"        .........         .........          .........          ",
"       ....+@@@...       ....+@@@...        ....+@@@...         ",
"      ....+#@@@@...     ....+#@@@@...      ....+#@@@@...        ",
"     ....@+#@@+@@..    ....@+#@@+@@..     ....@+#@@+@@..        ",
"     ...@@@@@@#+@...   ...@@@@@@#+@...    ...@@@@@@#+@...       ",
"    ...$@@@@@@#+@$.......$@@@@@@#+@$........$@@@@@@#+@$...      ",
"    ..$$$++@@@@@$.........$++@@@@@$.........$$++@@@@@$$...      ",
"    ..@@$###@@$$....+@@@...###@@$$....+@@@...$###@@$$##$..      ",
"    ...@@$$$$$$....+#@@@@...$$$$$....+#@@@@...$$$$$$###$..      ",
"     ....$$$$$....@+#@@+@@..$$$$....@+#@@+@@..$$$$$$$$$...      ",
"      ...........@@@@@@#+@.........@@@@@@#+@.............       ",
"        ........$@@@@@@#+@$.......$@@@@@@#+@$...........        ",
"        .........$++@@@@@$$........$++@@@@@$$.........          ",
"        ..........###@@$$##.........###@@$$##$.........         ",
"        ....+@@@...$$$$$##....+@@@...$$$$$###....+@@@...        ",
"       ....+#@@@@...$$$$$....+#@@@@...$$$$$$....+#@@@@...       ",
"      ....@+#@@+@@..........@+#@@+@@...........@+#@@+@@..       ",
"      ...@@@@@@#+@.........@@@@@@#+@..........@@@@@@#+@...      ",
"     ...$@@@@@@#+@$.......$@@@@@@#+@$........$@@@@@@#+@$...     ",
"     ..$$$++@@@@@$.........$++@@@@@$.........$$++@@@@@$$...     ",
"     ..@@$###@@$$....+@@@...###@@$$....+@@@...$###@@$$##$..     ",
"     ...@@$$$$$$....+#@@@@...$$$$$....+#@@@@...$$$$$$###$..     ",
"      ....$$$$$....@+#@@+@@..$$$$....@+#@@+@@..$$$$$$$$$...     ",
"       ...........@@@@@@#+@.........@@@@@@#+@.............      ",
"         ........$@@@@@@#+@$.......$@@@@@@#+@$...........       ",
"         ...##..$$$++@@@@@$$...#..$$$++@@@@@$$...####..         ",
"         ........@$###@@$$##$......@$###@@$$##$........         ",
"         .........@$$$$$$##.........@$$$$$$###.........         ",
"        ....+@@@...$$$$$$$....+@@@...$$$$$$$$....+@@@...        ",
"       ....+#@@@@............+#@@@@.............+#@@@@...       ",
"      ....@+#@@+@@..........@+#@@+@@...........@+#@@+@@..       ",
"      ...@@@@@@#+@...###...@@@@@@#+@...####...@@@@@@#+@...      ",
"     ...$@@@@@@#+@$.......$@@@@@@#+@$........$@@@@@@#+@$...     ",
"     ..$$$++@@@@@$.........$++@@@@@$.........$$++@@@@@$$...     ",
"     ..@@$###@@$$....+@@@...###@@$$....+@@@...$###@@$$##$..     ",
"     ...@@$$$$$$....+#@@@@...$$$$$....+#@@@@...$$$$$$###$..     ",
"      ....$$$$$....@+#@@+@@..$$$$....@+#@@+@@..$$$$$$$$$...     ",
"       ...........@@@@@@#+@.........@@@@@@#+@.............      ",
"         ........$@@@@@@#+@$.......$@@@@@@#+@$...........       ",
"         ...##..$$$++@@@@@$$...#..$$$++@@@@@$$...####..         ",
"         ..###..@@$###@@$$##$..#..@@$###@@$$##$..##++..         ",
"          ..#+...@@$$$$$$###$..+...@@$$$$$$###$..#++..          ",
"               ....$$$$$$$$$...  ....$$$$$$$$$...               ",
"                ..............    ..............                ",
"                  ...........       ...........                 ",
"                  ...####..         ...####..                   ",
"                  ..###++..         ..###++..                   ",
"                   ..#++..           ..#++..                    ",
"                                                                ",
"                                                                ",
"                                                                ",
"                                                                ",
"                                                                ",
"                                                                ",
"                                                                "};
