/* XPM */
static char *_6a6364332f5433fbd66aee03b5b4d555DDWBQQOkVfmX1Ci[] = {
/* columns rows colors chars-per-pixel */
"64 64 6 1 ",
"  c None",
". c #161C2E",
"X c #7C4E5F",
"o c #DB4C4C",
"O c #BCADA7",
"+ c #F1E2B9",
/* pixels */
"                                                                ",
"                                                                ",
"                                                                ",
"                                                                ",
"                                                                ",
"                                                                ",
"                                                                ",
"                                                                ",
"                                                                ",
"                                                                ",
"                                                                ",
"                                                                ",
"                                                                ",
"                                                                ",
"                                                                ",
"                                                                ",
"                                                                ",
"                                                                ",
"                                                                ",
"                                                                ",
"                                                                ",
"                                                                ",
"                                                                ",
"                                                                ",
"                               ......                           ",
"                             .........                          ",
"                            ....+ooo...                         ",
"                           ....+Ooooo...                        ",
"                          ....o+Ooo+oo..                        ",
"                          ...ooooooO+o...                       ",
"                         ...XooooooO+oX...                      ",
"                         ..XXX++oooooXX...                      ",
"                         ..ooXOOOooXXOOX..                      ",
"                         ...ooXXXXXXOOOX..                      ",
"                          ....XXXXXXXXX...                      ",
"                           ..............                       ",
"                             ...........                        ",
"                             ...OOOO..                          ",
"                             ..OOO++..                          ",
"                              ..O++..                           ",
"                                                                ",
"                                                                ",
"                                                                ",
"                                                                ",
"                                                                ",
"                                                                ",
"                                                                ",
"                                                                ",
"                                                                ",
"                                                                ",
"                                                                ",
"                                                                ",
"                                                                ",
"                                                                ",
"                                                                ",
"                                                                ",
"                                                                ",
"                                                                ",
"                                                                ",
"                                                                ",
"                                                                ",
"                                                                ",
"                                                                ",
"                                                                "
};
